<svg width="237" height="43" viewBox="0 0 237 43" fill="none" xmlns="http://www.w3.org/2000/svg">
<path d="M51.448 34V10.098H54.712L64.402 25.602H62.532L72.188 10.098H75.452V34H70.862V18.02L71.746 18.292L65.014 29.104H61.886L55.154 18.292L56.072 18.02V34H51.448ZM79.8587 34V17.578H84.3467V34H79.8587ZM82.1027 14.926C81.3774 14.926 80.7767 14.688 80.3007 14.212C79.8247 13.7133 79.5867 13.1013 79.5867 12.376C79.5867 11.6733 79.8247 11.0727 80.3007 10.574C80.7767 10.0753 81.3774 9.826 82.1027 9.826C82.8507 9.826 83.4514 10.0753 83.9047 10.574C84.3807 11.0727 84.6187 11.6733 84.6187 12.376C84.6187 13.1013 84.3807 13.7133 83.9047 14.212C83.4514 14.688 82.8507 14.926 82.1027 14.926ZM99.3423 34V24.582C99.3423 23.6073 99.0363 22.814 98.4243 22.202C97.8123 21.59 97.019 21.284 96.0443 21.284C95.4096 21.284 94.843 21.42 94.3443 21.692C93.8456 21.964 93.449 22.3493 93.1543 22.848C92.8823 23.3467 92.7463 23.9247 92.7463 24.582L91.0123 23.698C91.0123 22.406 91.2843 21.284 91.8283 20.332C92.395 19.3573 93.1656 18.598 94.1403 18.054C95.1376 17.51 96.2596 17.238 97.5063 17.238C98.7076 17.238 99.7843 17.544 100.736 18.156C101.688 18.7453 102.436 19.5273 102.98 20.502C103.524 21.454 103.796 22.4853 103.796 23.596V34H99.3423ZM88.2923 34V17.578H92.7463V34H88.2923ZM114.32 34.34C112.801 34.34 111.441 33.966 110.24 33.218C109.039 32.47 108.087 31.45 107.384 30.158C106.704 28.866 106.364 27.4153 106.364 25.806C106.364 24.174 106.704 22.712 107.384 21.42C108.087 20.128 109.027 19.108 110.206 18.36C111.407 17.612 112.779 17.238 114.32 17.238C115.499 17.238 116.553 17.476 117.482 17.952C118.434 18.428 119.193 19.0967 119.76 19.958C120.349 20.7967 120.667 21.7487 120.712 22.814V28.662C120.667 29.7273 120.361 30.6907 119.794 31.552C119.227 32.4133 118.468 33.0933 117.516 33.592C116.564 34.0907 115.499 34.34 114.32 34.34ZM115.068 30.226C115.907 30.226 116.632 30.0447 117.244 29.682C117.879 29.2967 118.366 28.7753 118.706 28.118C119.069 27.438 119.25 26.656 119.25 25.772C119.25 24.9107 119.069 24.1513 118.706 23.494C118.366 22.814 117.879 22.2927 117.244 21.93C116.632 21.5447 115.918 21.352 115.102 21.352C114.263 21.352 113.527 21.5447 112.892 21.93C112.28 22.3153 111.793 22.8367 111.43 23.494C111.09 24.1513 110.92 24.9107 110.92 25.772C110.92 26.656 111.09 27.438 111.43 28.118C111.793 28.7753 112.291 29.2967 112.926 29.682C113.561 30.0447 114.275 30.226 115.068 30.226ZM123.432 34H119.012V29.58L119.726 25.568L118.978 21.624V9.418H123.432V34ZM134.784 34.34C132.858 34.34 131.203 34.0113 129.82 33.354C128.46 32.6967 127.225 31.7107 126.114 30.396L129.174 27.336C129.877 28.2653 130.693 28.9907 131.622 29.512C132.552 30.0107 133.685 30.26 135.022 30.26C136.224 30.26 137.176 30.022 137.878 29.546C138.604 29.07 138.966 28.4127 138.966 27.574C138.966 26.8487 138.762 26.2593 138.354 25.806C137.946 25.3527 137.402 24.9673 136.722 24.65C136.065 24.3327 135.328 24.0493 134.512 23.8C133.719 23.528 132.914 23.222 132.098 22.882C131.305 22.542 130.568 22.1227 129.888 21.624C129.231 21.1027 128.698 20.4453 128.29 19.652C127.882 18.836 127.678 17.816 127.678 16.592C127.678 15.1413 128.03 13.906 128.732 12.886C129.435 11.866 130.398 11.084 131.622 10.54C132.846 9.996 134.229 9.724 135.77 9.724C137.402 9.724 138.876 10.03 140.19 10.642C141.505 11.254 142.582 12.0473 143.42 13.022L140.36 16.082C139.658 15.3113 138.932 14.7447 138.184 14.382C137.459 14.0193 136.632 13.838 135.702 13.838C134.637 13.838 133.798 14.042 133.186 14.45C132.574 14.858 132.268 15.4473 132.268 16.218C132.268 16.8753 132.472 17.408 132.88 17.816C133.288 18.224 133.821 18.5753 134.478 18.87C135.158 19.1647 135.895 19.448 136.688 19.72C137.504 19.992 138.309 20.298 139.102 20.638C139.918 20.978 140.655 21.42 141.312 21.964C141.992 22.508 142.536 23.2107 142.944 24.072C143.352 24.9107 143.556 25.9533 143.556 27.2C143.556 29.4213 142.774 31.1667 141.21 32.436C139.646 33.7053 137.504 34.34 134.784 34.34ZM155.842 34.34C154.663 34.34 153.598 34.102 152.646 33.626C151.694 33.1273 150.934 32.4587 150.368 31.62C149.801 30.7813 149.495 29.818 149.45 28.73V22.916C149.495 21.828 149.801 20.8647 150.368 20.026C150.957 19.1647 151.716 18.4847 152.646 17.986C153.598 17.4873 154.663 17.238 155.842 17.238C157.36 17.238 158.72 17.612 159.922 18.36C161.123 19.108 162.064 20.128 162.744 21.42C163.446 22.712 163.798 24.174 163.798 25.806C163.798 27.4153 163.446 28.866 162.744 30.158C162.064 31.45 161.123 32.47 159.922 33.218C158.72 33.966 157.36 34.34 155.842 34.34ZM146.73 40.868V17.578H151.184V21.896L150.436 25.874L151.15 29.852V40.868H146.73ZM155.06 30.226C155.876 30.226 156.601 30.0447 157.236 29.682C157.87 29.2967 158.358 28.7753 158.698 28.118C159.06 27.438 159.242 26.656 159.242 25.772C159.242 24.9107 159.06 24.1513 158.698 23.494C158.358 22.814 157.87 22.2927 157.236 21.93C156.601 21.5447 155.876 21.352 155.06 21.352C154.266 21.352 153.552 21.5447 152.918 21.93C152.283 22.2927 151.784 22.814 151.422 23.494C151.082 24.1513 150.912 24.9107 150.912 25.772C150.912 26.656 151.082 27.438 151.422 28.118C151.784 28.7753 152.272 29.2967 152.884 29.682C153.518 30.0447 154.244 30.226 155.06 30.226ZM173.586 34.34C172.09 34.34 170.741 33.966 169.54 33.218C168.339 32.47 167.398 31.45 166.718 30.158C166.038 28.866 165.698 27.4153 165.698 25.806C165.698 24.174 166.038 22.712 166.718 21.42C167.398 20.128 168.339 19.108 169.54 18.36C170.741 17.612 172.09 17.238 173.586 17.238C174.765 17.238 175.819 17.476 176.748 17.952C177.677 18.428 178.414 19.0967 178.958 19.958C179.525 20.7967 179.831 21.7487 179.876 22.814V28.73C179.831 29.818 179.525 30.7813 178.958 31.62C178.414 32.4587 177.677 33.1273 176.748 33.626C175.819 34.102 174.765 34.34 173.586 34.34ZM174.402 30.226C175.649 30.226 176.657 29.818 177.428 29.002C178.199 28.1633 178.584 27.0867 178.584 25.772C178.584 24.9107 178.403 24.1513 178.04 23.494C177.7 22.814 177.213 22.2927 176.578 21.93C175.966 21.5447 175.241 21.352 174.402 21.352C173.586 21.352 172.861 21.5447 172.226 21.93C171.614 22.2927 171.127 22.814 170.764 23.494C170.424 24.1513 170.254 24.9107 170.254 25.772C170.254 26.656 170.424 27.438 170.764 28.118C171.127 28.7753 171.614 29.2967 172.226 29.682C172.861 30.0447 173.586 30.226 174.402 30.226ZM178.346 34V29.58L179.06 25.568L178.346 21.624V17.578H182.766V34H178.346ZM186.706 34V17.578H191.16V34H186.706ZM191.16 24.922L189.426 23.766C189.63 21.7487 190.22 20.162 191.194 19.006C192.169 17.8273 193.574 17.238 195.41 17.238C196.204 17.238 196.918 17.374 197.552 17.646C198.187 17.8953 198.765 18.3147 199.286 18.904L196.498 22.1C196.249 21.828 195.943 21.624 195.58 21.488C195.24 21.352 194.844 21.284 194.39 21.284C193.438 21.284 192.656 21.59 192.044 22.202C191.455 22.7913 191.16 23.698 191.16 24.922ZM211.323 34L204.965 25.534L211.289 17.578H216.423L209.011 26.554L209.181 24.378L216.763 34H211.323ZM200.851 34V9.418H205.305V34H200.851ZM223.495 34.374C222.566 34.374 221.648 34.2493 220.741 34C219.857 33.7507 219.041 33.4107 218.293 32.98C217.545 32.5267 216.899 31.9827 216.355 31.348L219.007 28.662C219.574 29.2967 220.231 29.7727 220.979 30.09C221.727 30.4073 222.554 30.566 223.461 30.566C224.186 30.566 224.73 30.464 225.093 30.26C225.478 30.056 225.671 29.75 225.671 29.342C225.671 28.8887 225.467 28.5373 225.059 28.288C224.674 28.0387 224.164 27.8347 223.529 27.676C222.894 27.4947 222.226 27.302 221.523 27.098C220.843 26.8713 220.186 26.588 219.551 26.248C218.916 25.8853 218.395 25.398 217.987 24.786C217.602 24.1513 217.409 23.3353 217.409 22.338C217.409 21.2953 217.658 20.3887 218.157 19.618C218.678 18.8473 219.415 18.2467 220.367 17.816C221.319 17.3853 222.441 17.17 223.733 17.17C225.093 17.17 226.317 17.408 227.405 17.884C228.516 18.36 229.434 19.074 230.159 20.026L227.473 22.712C226.974 22.1 226.408 21.658 225.773 21.386C225.161 21.114 224.492 20.978 223.767 20.978C223.11 20.978 222.6 21.08 222.237 21.284C221.897 21.488 221.727 21.7713 221.727 22.134C221.727 22.542 221.92 22.8593 222.305 23.086C222.713 23.3127 223.234 23.5167 223.869 23.698C224.504 23.8567 225.161 24.0493 225.841 24.276C226.544 24.48 227.201 24.7747 227.813 25.16C228.448 25.5453 228.958 26.0553 229.343 26.69C229.751 27.3247 229.955 28.1407 229.955 29.138C229.955 30.7473 229.377 32.028 228.221 32.98C227.065 33.9093 225.49 34.374 223.495 34.374Z" fill="black"/>
<path d="M19.9994 0.145374C31.0454 0.145374 39.9994 9.07444 39.9994 20.0897V34.0507C39.9994 35.6376 39.3673 37.1594 38.2421 38.2815C37.1169 39.4036 35.5907 40.034 33.9994 40.034H20.9994V31.2844C20.9994 29.288 21.1214 27.2198 22.1714 25.5205C22.9232 24.3028 23.9288 23.2605 25.12 22.4643C26.3112 21.6682 27.6602 21.1369 29.0754 20.9064L29.4584 20.8446C29.6163 20.7908 29.7534 20.689 29.8505 20.5537C29.9475 20.4183 29.9997 20.2561 29.9997 20.0897C29.9997 19.9233 29.9475 19.761 29.8505 19.6257C29.7534 19.4903 29.6163 19.3886 29.4584 19.3348L29.0754 19.273C27.0076 18.9361 25.0981 17.9601 23.6166 16.4826C22.135 15.0052 21.1562 13.101 20.8184 11.039L20.7564 10.657C20.7025 10.4996 20.6005 10.3629 20.4647 10.2661C20.329 10.1693 20.1663 10.1173 19.9994 10.1173C19.8326 10.1173 19.6699 10.1693 19.5341 10.2661C19.3984 10.3629 19.2964 10.4996 19.2424 10.657L19.1804 11.039C18.9494 12.4503 18.4166 13.7955 17.6182 14.9835C16.8199 16.1714 15.7746 17.1741 14.5534 17.9237C12.8494 18.9708 10.7754 19.0925 8.77344 19.0925H0.0234375C0.546438 8.54093 9.28944 0.145374 19.9994 0.145374Z" fill="#5044E5"/>
<path d="M0 21.0869H8.774C10.776 21.0869 12.85 21.2086 14.554 22.2556C15.886 23.0741 17.0072 24.1923 17.828 25.5205C18.878 27.2198 19 29.288 19 31.2844V40.034H6C4.4087 40.034 2.88258 39.4036 1.75736 38.2815C0.632141 37.1594 0 35.6376 0 34.0507L0 21.0869ZM40 2.13981C40 2.66876 39.7893 3.17605 39.4142 3.55008C39.0391 3.92411 38.5304 4.13424 38 4.13424C37.4696 4.13424 36.9609 3.92411 36.5858 3.55008C36.2107 3.17605 36 2.66876 36 2.13981C36 1.61085 36.2107 1.10356 36.5858 0.72953C36.9609 0.355501 37.4696 0.145374 38 0.145374C38.5304 0.145374 39.0391 0.355501 39.4142 0.72953C39.7893 1.10356 40 1.61085 40 2.13981Z" fill="#5044E5"/>
</svg>
